# xmcd
#
# Track frame offsets: 
#        150
#        11400
#        25602
#        52730
#        77435
#        105565
#        128750
#        152485
#        169792
#        173055
#        196767
#        218355
#        243717
#
# Disc length: 3457 seconds
#
# Revision: 19
# Processed by: cddbd v1.5.2PL0 Copyright (c) Steve Scherf et al.
# Submitted via: ExactAudioCopyFreeDBPlugin 1.0
#
DISCID=8a0d7f0d
DTITLE=Alice in Chains - Dirt
DYEAR=1992
DGENRE=Grunge
TTITLE0=Them Bones
TTITLE1=Dam That River
TTITLE2=Rain When I Die
TTITLE3=Sickman
TTITLE4=Rooster
TTITLE5=Junkhead
TTITLE6=Dirt
TTITLE7=God Smack
TTITLE8=Iron Gland
TTITLE9=Hate to Feel
TTITLE10=Angry Chair
TTITLE11=Down in a Hole
TTITLE12=Would
EXTD=
EXTT0=
EXTT1=
EXTT2=
EXTT3=
EXTT4=
EXTT5=
EXTT6=
EXTT7=
EXTT8=
EXTT9=
EXTT10=
EXTT11=
EXTT12=
PLAYORDER=
